<svg width="24" height="24" viewBox="0 0 24 24" fill="none" xmlns="http://www.w3.org/2000/svg">
<path d="M4 2.62952V22" stroke="white" stroke-width="1.5"/>
<path d="M20 14.4067L18.78 14.0387C16.9705 13.4865 15.0295 13.4865 13.22 14.0387L12.78 14.1743C12.2521 14.3328 11.7478 14.5574 11.28 14.8426C10.3046 15.4593 9.16489 15.7877 8 15.7877C6.83511 15.7877 5.69542 15.4593 4.72 14.8426L4 14.4067V2.78447L4.72 3.22031C5.69542 3.83707 6.83511 4.16549 8 4.16549C9.16489 4.16549 10.3046 3.83707 11.28 3.22031C11.7478 2.93517 12.2521 2.71051 12.78 2.55203L13.22 2.41643C15.0295 1.8642 16.9705 1.8642 18.78 2.41643L20 2.78447V14.4067Z" stroke="white" stroke-width="1.5"/>
<path d="M8 4.15979V8.03387C6.8338 8.01981 5.69594 7.68382 4.72 7.06535L4 6.65857V2.78448L4.72 3.22032C5.69915 3.82854 6.83678 4.15439 8 4.15979Z" fill="white"/>
<path d="M16 1.99994V5.87403C15.0571 5.87817 14.1201 6.01854 13.22 6.29049L12.78 6.42608C12.5136 6.50595 12.253 6.60302 12 6.71664V2.84255C12.253 2.72893 12.5136 2.63186 12.78 2.552L13.22 2.4164C14.1201 2.14445 15.0571 2.00409 16 1.99994Z" fill="white"/>
<path d="M12 6.71661V10.5907C11.7497 10.6973 11.5089 10.8237 11.28 10.9684C10.3048 11.5884 9.16646 11.9245 8 11.9369V8.06286C9.16646 8.05041 10.3048 7.71429 11.28 7.09434C11.5089 6.94958 11.7497 6.82324 12 6.71661Z" fill="white"/>
<path d="M20 6.65853V10.5326L18.78 10.1646C17.88 9.89192 16.943 9.75153 16 9.74811V5.87402C16.943 5.87745 17.88 6.01783 18.78 6.29049L20 6.65853Z" fill="white"/>
<path d="M16 9.74811V13.6222C15.0571 13.6263 14.1201 13.7667 13.22 14.0387L12.78 14.1743C12.5136 14.2541 12.253 14.3512 12 14.4648V10.5907C12.253 10.4771 12.5136 10.38 12.78 10.3002L13.22 10.1646C14.1201 9.89262 15.0571 9.75226 16 9.74811Z" fill="white"/>
<path d="M8 11.908V15.782C6.8338 15.768 5.69594 15.432 4.72 14.8135L4 14.4067V10.5327L4.72 10.9685C5.69915 11.5767 6.83678 11.9026 8 11.908Z" fill="white"/>
</svg>
