<svg width="24" height="24" viewBox="0 0 24 24" fill="none" xmlns="http://www.w3.org/2000/svg">
<path d="M12 13.4999C12.6904 13.4999 13.25 12.9403 13.25 12.2499C13.25 11.5596 12.6904 10.9999 12 10.9999C11.3096 10.9999 10.75 11.5596 10.75 12.2499C10.75 12.9403 11.3096 13.4999 12 13.4999Z" stroke="white" stroke-width="2" stroke-linecap="round" stroke-linejoin="round"/>
<path d="M20.75 13.4999C21.4404 13.4999 22 12.9403 22 12.2499C22 11.5596 21.4404 10.9999 20.75 10.9999C20.0596 10.9999 19.5 11.5596 19.5 12.2499C19.5 12.9403 20.0596 13.4999 20.75 13.4999Z" stroke="white" stroke-width="2" stroke-linecap="round" stroke-linejoin="round"/>
<path d="M3.25 13.4999C3.94036 13.4999 4.5 12.9403 4.5 12.2499C4.5 11.5596 3.94036 10.9999 3.25 10.9999C2.55964 10.9999 2 11.5596 2 12.2499C2 12.9403 2.55964 13.4999 3.25 13.4999Z" stroke="white" stroke-width="2" stroke-linecap="round" stroke-linejoin="round"/>
</svg>
