<svg width="24" height="21" viewBox="0 0 24 21" fill="none" xmlns="http://www.w3.org/2000/svg">
<path d="M2.21401 10.1972L2.21399 10.1972L2.2114 10.2009C1.33286 11.4355 0.861758 12.8896 0.861821 14.38C0.861821 14.38 0.861821 14.38 0.861821 14.38V15.6207C0.861821 15.6462 0.85131 15.6779 0.820637 15.7066C0.788851 15.7364 0.739112 15.7583 0.680911 15.7583C0.622709 15.7583 0.57297 15.7364 0.541184 15.7066C0.510511 15.6779 0.5 15.6462 0.5 15.6207L0.5 14.3814C0.5 14.3814 0.5 14.3813 0.5 14.3813C0.500414 12.8509 0.984516 11.3519 1.89567 10.0732L1.89578 10.073L2.04278 9.86658C2.04279 9.86656 2.0428 9.86655 2.04281 9.86654C2.04282 9.86651 2.04284 9.86649 2.04286 9.86646C2.05348 9.85159 2.06863 9.83672 2.08881 9.82408C2.10909 9.81136 2.13343 9.80157 2.1606 9.79649C2.18779 9.79141 2.216 9.79139 2.24321 9.79643C2.2704 9.80148 2.29477 9.81124 2.31509 9.82393C2.33535 9.83659 2.35057 9.85149 2.36123 9.8664C2.37182 9.88122 2.37795 9.89604 2.38087 9.90974C2.38378 9.92337 2.38379 9.93712 2.38091 9.95075C2.37808 9.96411 2.3722 9.97853 2.36212 9.99299L2.21401 10.1972Z" fill="white" stroke="white"/>
<path d="M11.0583 10.1857L11.0581 10.1855L10.9219 9.99419L10.9177 9.9882L10.9132 9.98234C10.9018 9.96724 10.8951 9.95206 10.8918 9.93805C10.8885 9.92413 10.8883 9.91012 10.891 9.89629C10.8938 9.8824 10.8998 9.86734 10.9105 9.85226C10.9212 9.83709 10.9366 9.82188 10.9572 9.80899C10.9779 9.79607 11.0028 9.78622 11.0306 9.78128C11.0584 9.77635 11.0872 9.7767 11.1147 9.78226C11.1422 9.78783 11.1666 9.7982 11.1867 9.81144C11.2068 9.82464 11.2215 9.83997 11.2316 9.85512L11.2359 9.8615L11.2403 9.86774L11.3764 10.0589C11.3764 10.0589 11.3765 10.059 11.3765 10.059C12.0069 10.9452 12.3818 11.9622 12.4728 13.0129H12.1104C12.0204 12.0025 11.6585 11.03 11.0583 10.1857ZM6.45912 7.9352C4.98485 7.9352 3.58895 8.55536 2.65294 9.62371L2.37442 9.45005C2.80821 8.96184 3.34121 8.55341 3.94652 8.25001C4.71738 7.86363 5.58005 7.66043 6.45776 7.66003C6.45782 7.66003 6.45789 7.66003 6.45796 7.66003L6.75736 7.66003C6.81556 7.66003 6.8653 7.68199 6.89708 7.71175C6.92776 7.74047 6.93827 7.77213 6.93827 7.79762C6.93827 7.8231 6.92776 7.85476 6.89708 7.88348C6.8653 7.91324 6.81556 7.9352 6.75736 7.9352H6.45912Z" fill="white" stroke="white"/>
<path d="M10.9074 9.45005L10.6289 9.62371C9.69294 8.55541 8.2972 7.9352 6.82409 7.9352H6.52448C6.49633 7.9352 6.46913 7.92997 6.44472 7.9205C6.42033 7.91104 6.40022 7.89796 6.38476 7.88348C6.36936 7.86907 6.35904 7.85375 6.35266 7.83934C6.34633 7.82502 6.34357 7.81095 6.34357 7.79762C6.34357 7.78429 6.34633 7.77022 6.35266 7.7559C6.35904 7.74148 6.36937 7.72617 6.38476 7.71175C6.40022 7.69728 6.42033 7.68419 6.44472 7.67473C6.46914 7.66526 6.49633 7.66003 6.52448 7.66003L6.82388 7.66003C6.8239 7.66003 6.82393 7.66003 6.82395 7.66003C6.82399 7.66003 6.82404 7.66003 6.82409 7.66003C7.70179 7.66043 8.56446 7.86363 9.33532 8.25001C9.94063 8.55341 10.4736 8.96184 10.9074 9.45005Z" fill="white" stroke="white"/>
<path d="M10.2343 18.4733V18.4733C10.2342 16.9435 10.7174 15.4449 11.6274 14.1662L11.6277 14.1658L11.8081 13.9118C11.8082 13.9117 11.8083 13.9116 11.8084 13.9115C11.8301 13.8811 11.8704 13.852 11.9263 13.8416C11.9827 13.8311 12.039 13.8429 12.081 13.8692C12.1221 13.8949 12.1412 13.9284 12.1469 13.9552C12.1524 13.9812 12.1479 14.0108 12.1272 14.0398L12.1269 14.0403L11.9472 14.2927C11.9471 14.2928 11.9471 14.2928 11.9471 14.2928C11.0678 15.5276 10.5962 16.9823 10.5961 18.4733V19.7918C10.5961 19.8173 10.5856 19.849 10.5549 19.8777C10.5231 19.9074 10.4734 19.9294 10.4152 19.9294C10.357 19.9294 10.3073 19.9074 10.2755 19.8777C10.2448 19.849 10.2343 19.8173 10.2343 19.7918V18.4733ZM6.55444 7.5134C7.01809 7.5134 7.47788 7.42793 7.90783 7.26117C8.33781 7.0944 8.73054 6.84918 9.06284 6.53803C9.3952 6.22682 9.66073 5.85556 9.84256 5.44452C10.0244 5.03338 10.1185 4.59146 10.1185 4.14428C10.1185 3.69711 10.0244 3.25518 9.84256 2.84404C9.66073 2.43301 9.3952 2.06175 9.06284 1.75053C8.73054 1.43939 8.33781 1.19417 7.90783 1.0274C7.47788 0.86064 7.01809 0.775164 6.55444 0.775164C5.61941 0.775164 4.71659 1.12266 4.04605 1.75053C3.3744 2.37945 2.99035 3.23973 2.99035 4.14428C2.99035 5.04883 3.3744 5.90912 4.04605 6.53803C4.71659 7.1659 5.61941 7.5134 6.55444 7.5134ZM9.34229 6.70976C8.60818 7.39715 7.60588 7.78856 6.55444 7.78856C5.503 7.78856 4.50071 7.39715 3.7666 6.70976C3.0336 6.0234 2.62852 5.0998 2.62852 4.14428C2.62852 3.18876 3.0336 2.26516 3.7666 1.57881C4.50071 0.89141 5.503 0.5 6.55444 0.5C7.60588 0.5 8.60818 0.89141 9.34229 1.57881C10.0753 2.26516 10.4804 3.18876 10.4804 4.14428C10.4804 5.0998 10.0753 6.0234 9.34229 6.70976Z" fill="white" stroke="white"/>
<path d="M21.0661 14.2928L21.0651 14.2914L20.8847 14.0399C20.8846 14.0397 20.8845 14.0396 20.8844 14.0395C20.8639 14.0106 20.8595 13.9811 20.865 13.9553C20.8707 13.9284 20.8898 13.8949 20.9309 13.8692C20.9729 13.8429 21.0292 13.8311 21.0856 13.8416C21.1415 13.852 21.1818 13.8812 21.2035 13.9115C21.2036 13.9116 21.2037 13.9117 21.2037 13.9118L21.3842 14.1659L21.3846 14.1664C22.295 15.4449 22.7787 16.9435 22.779 18.4733C22.779 18.4734 22.779 18.4734 22.779 18.4734L22.779 19.7918C22.779 19.8173 22.7685 19.849 22.7378 19.8777C22.706 19.9075 22.6563 19.9294 22.5981 19.9294C22.5399 19.9294 22.4901 19.9075 22.4583 19.8777C22.4277 19.849 22.4171 19.8173 22.4171 19.7918V18.4733V18.4733C22.4171 16.9823 21.9454 15.5276 21.0661 14.2928ZM16.3187 11.9329C15.4929 11.9328 14.6786 12.1236 13.9476 12.4899C13.3605 12.7841 12.8408 13.1849 12.4185 13.6691L12.1402 13.495C12.5846 12.9921 13.1319 12.5716 13.7539 12.2598C14.5412 11.8652 15.4223 11.6578 16.3187 11.6577C16.3187 11.6577 16.3187 11.6577 16.3187 11.6577H16.6237C16.6819 11.6577 16.7317 11.6797 16.7635 11.7094C16.7941 11.7382 16.8047 11.7698 16.8047 11.7953C16.8047 11.8208 16.7941 11.8524 16.7635 11.8812C16.7317 11.9109 16.6819 11.9329 16.6237 11.9329H16.3188C16.3187 11.9329 16.3187 11.9329 16.3187 11.9329Z" fill="white" stroke="white"/>
<path d="M16.6932 11.6577H16.6933C17.5899 11.6576 18.4712 11.8649 19.2588 12.2595C19.881 12.5713 20.4284 12.9918 20.8729 13.4948L20.5936 13.6693C20.1712 13.185 19.6514 12.7842 19.0643 12.4899C18.3333 12.1236 17.519 11.9328 16.6932 11.9329C16.6932 11.9329 16.6932 11.9329 16.6931 11.9329H16.3868C16.3286 11.9329 16.2788 11.9109 16.2471 11.8812C16.2164 11.8524 16.2059 11.8208 16.2059 11.7953C16.2059 11.7698 16.2164 11.7382 16.2471 11.7094C16.2788 11.6797 16.3286 11.6577 16.3868 11.6577H16.6932Z" fill="white" stroke="white"/>
<path d="M16.4276 11.6576C16.8913 11.6576 17.3511 11.5722 17.781 11.4054C18.211 11.2386 18.6037 10.9934 18.936 10.6823C19.2684 10.371 19.5339 9.99979 19.7158 9.58875C19.8976 9.17761 19.9917 8.73568 19.9917 8.28851C19.9917 7.84133 19.8976 7.39941 19.7158 6.98827C19.5339 6.57723 19.2684 6.20597 18.936 5.89476C18.6037 5.58361 18.211 5.33839 17.781 5.17162C17.3511 5.00487 16.8913 4.91939 16.4276 4.91939C15.4926 4.91939 14.5898 5.26689 13.9192 5.89476C13.2476 6.52367 12.8635 7.38396 12.8635 8.28851C12.8635 9.19306 13.2476 10.0533 13.9192 10.6823C14.5898 11.3101 15.4926 11.6576 16.4276 11.6576ZM19.2155 10.854C18.4814 11.5414 17.4791 11.9328 16.4276 11.9328C15.3762 11.9328 14.3739 11.5414 13.6398 10.854C12.9068 10.1676 12.5017 9.24403 12.5017 8.28851C12.5017 7.33299 12.9068 6.40939 13.6398 5.72303C14.3739 5.03564 15.3762 4.64423 16.4276 4.64423C17.4791 4.64423 18.4814 5.03564 19.2155 5.72303C19.9485 6.40939 20.3536 7.33299 20.3536 8.28851C20.3536 9.24403 19.9485 10.1676 19.2155 10.854Z" fill="white" stroke="white"/>
</svg>
