<svg width="24" height="21" viewBox="0 0 24 21" fill="none" xmlns="http://www.w3.org/2000/svg">
<g opacity="0.37">
<path fill-rule="evenodd" clip-rule="evenodd" d="M2.61878 10.4908C1.7991 11.6426 1.36176 12.9959 1.36182 14.38V15.6207C1.36182 15.7898 1.29008 15.952 1.16239 16.0716C1.03469 16.1912 0.861499 16.2583 0.680911 16.2583C0.500322 16.2583 0.32713 16.1912 0.199434 16.0716C0.0717386 15.952 0 15.7898 0 15.6207V14.3813C0.000414437 12.7445 0.518337 11.1446 1.48847 9.78304L1.63555 9.57647C1.68517 9.50681 1.74897 9.44698 1.82329 9.4004C1.89761 9.35383 1.981 9.32141 2.0687 9.30501C2.15639 9.28861 2.24668 9.28855 2.33441 9.30482C2.42213 9.32109 2.50557 9.35339 2.57997 9.39986C2.65437 9.44633 2.71826 9.50606 2.768 9.57565C2.81774 9.64524 2.85236 9.72333 2.86987 9.80544C2.88739 9.88756 2.88746 9.9721 2.87008 10.0542C2.8527 10.1364 2.81821 10.2145 2.76858 10.2842L2.61878 10.4908Z" fill="white"/>
<path fill-rule="evenodd" clip-rule="evenodd" d="M6.45912 8.4352C4.97473 8.4352 3.58976 9.12889 2.76722 10.2842L1.63419 9.57774C2.16379 8.83433 2.88108 8.22475 3.72248 7.80301C4.56388 7.38128 5.50339 7.16043 6.45776 7.16003H6.75736C6.93794 7.16003 7.11114 7.22721 7.23883 7.34678C7.36653 7.46635 7.43827 7.62852 7.43827 7.79762C7.43827 7.96671 7.36653 8.12889 7.23883 8.24846C7.11114 8.36802 6.93794 8.4352 6.75736 8.4352H6.45912ZM10.6508 10.4755C11.2909 11.3757 11.6327 12.4316 11.6327 13.5129H12.9945C12.9939 12.1805 12.5727 10.8779 11.7838 9.76902L11.6477 9.57774C11.5994 9.50539 11.5361 9.44283 11.4616 9.39378C11.3871 9.34473 11.3028 9.31018 11.2138 9.29218C11.1247 9.27418 11.0327 9.27309 10.9432 9.28899C10.8537 9.30488 10.7685 9.33743 10.6927 9.38471C10.6169 9.43198 10.5519 9.49303 10.5018 9.56423C10.4516 9.63542 10.4172 9.71532 10.4006 9.7992C10.384 9.88307 10.3855 9.96921 10.4051 10.0525C10.4247 10.1358 10.4619 10.2146 10.5146 10.2842L10.6508 10.4755Z" fill="white"/>
<path fill-rule="evenodd" clip-rule="evenodd" d="M6.82409 8.4352C8.30711 8.4352 9.69208 9.12889 10.5146 10.2842L11.6477 9.57774C11.1181 8.83433 10.4008 8.22475 9.55936 7.80301C8.71796 7.38128 7.77845 7.16043 6.82409 7.16003H6.52448C6.43507 7.16003 6.34652 7.17653 6.26391 7.20857C6.1813 7.24061 6.10624 7.28757 6.04301 7.34678C5.97978 7.40598 5.92962 7.47627 5.89541 7.55362C5.86119 7.63098 5.84357 7.71389 5.84357 7.79762C5.84357 7.88134 5.86119 7.96425 5.89541 8.04161C5.92962 8.11896 5.97978 8.18925 6.04301 8.24846C6.10624 8.30766 6.1813 8.35462 6.26391 8.38667C6.34652 8.41871 6.43507 8.4352 6.52448 8.4352H6.82409Z" fill="white"/>
<path fill-rule="evenodd" clip-rule="evenodd" d="M6.55444 7.0134C6.95683 7.0134 7.35527 6.93919 7.72702 6.795C8.09878 6.65082 8.43656 6.43948 8.72109 6.17306C9.00561 5.90663 9.23131 5.59034 9.3853 5.24225C9.53929 4.89415 9.61854 4.52106 9.61854 4.14428C9.61854 3.7675 9.53929 3.39442 9.3853 3.04632C9.23131 2.69822 9.00561 2.38193 8.72109 2.11551C8.43656 1.84909 8.09878 1.63775 7.72702 1.49356C7.35527 1.34938 6.95683 1.27516 6.55444 1.27516C5.74179 1.27516 4.96243 1.57744 4.3878 2.11551C3.81317 2.65357 3.49035 3.38334 3.49035 4.14428C3.49035 4.90522 3.81317 5.63499 4.3878 6.17306C4.96243 6.71112 5.74179 7.0134 6.55444 7.0134ZM6.55444 8.28856C7.72827 8.28856 8.85402 7.85194 9.68404 7.07473C10.5141 6.29753 10.9804 5.24341 10.9804 4.14428C10.9804 3.04515 10.5141 1.99104 9.68404 1.21383C8.85402 0.436628 7.72827 0 6.55444 0C5.38062 0 4.25487 0.436628 3.42485 1.21383C2.59483 1.99104 2.12852 3.04515 2.12852 4.14428C2.12852 5.24341 2.59483 6.29753 3.42485 7.07473C4.25487 7.85194 5.38062 8.28856 6.55444 8.28856ZM12.3544 14.5828C11.534 15.7349 11.0962 17.0886 11.0961 18.4733V19.7918C11.0961 19.9609 11.0244 20.1231 10.8967 20.2427C10.769 20.3622 10.5958 20.4294 10.4152 20.4294C10.2346 20.4294 10.0614 20.3622 9.93373 20.2427C9.80603 20.1231 9.7343 19.9609 9.7343 19.7918V18.4733C9.73417 16.8373 10.2511 15.2378 11.22 13.8763L11.4012 13.6213C11.5016 13.4806 11.6576 13.383 11.8348 13.35C12.012 13.317 12.196 13.3513 12.3463 13.4453C12.4965 13.5393 12.6007 13.6854 12.636 13.8514C12.6712 14.0173 12.6346 14.1896 12.5342 14.3303L12.3544 14.5828Z" fill="white"/>
<path fill-rule="evenodd" clip-rule="evenodd" d="M16.3187 12.4329C15.5696 12.4328 14.832 12.6059 14.1716 12.9369C13.5111 13.268 12.9482 13.7466 12.5328 14.3303L11.4012 13.6226C11.9408 12.8645 12.672 12.2428 13.5299 11.8128C14.3877 11.3828 15.3457 11.1578 16.3187 11.1577H16.6237C16.8043 11.1577 16.9775 11.2249 17.1052 11.3445C17.2329 11.464 17.3047 11.6262 17.3047 11.7953C17.3047 11.9644 17.2329 12.1266 17.1052 12.2461C16.9775 12.3657 16.8043 12.4329 16.6237 12.4329H16.3187ZM20.6588 14.5828C21.4792 15.7349 21.9171 17.0886 21.9171 18.4733V19.7918C21.9171 19.9609 21.9889 20.1231 22.1166 20.2427C22.2443 20.3623 22.4175 20.4294 22.5981 20.4294C22.7786 20.4294 22.9518 20.3623 23.0795 20.2427C23.2072 20.1231 23.279 19.9609 23.279 19.7918V18.4733C23.2787 16.8372 22.7612 15.2377 21.7919 13.8764L21.6107 13.6213C21.5103 13.4806 21.3543 13.3831 21.1771 13.3501C20.9999 13.3171 20.8159 13.3513 20.6656 13.4454C20.5154 13.5394 20.4112 13.6854 20.3759 13.8514C20.3407 14.0174 20.3773 14.1896 20.4777 14.3303L20.6588 14.5828Z" fill="white"/>
<path fill-rule="evenodd" clip-rule="evenodd" d="M16.6932 12.4329C17.4423 12.4328 18.1799 12.6059 18.8403 12.9369C19.5008 13.268 20.0637 13.7466 20.4791 14.3303L21.6121 13.6226C21.0723 12.8643 20.3409 12.2425 19.4828 11.8125C18.6247 11.3825 17.6665 11.1576 16.6932 11.1577H16.3868C16.2062 11.1577 16.033 11.2249 15.9053 11.3445C15.7776 11.464 15.7059 11.6262 15.7059 11.7953C15.7059 11.9644 15.7776 12.1266 15.9053 12.2461C16.033 12.3657 16.2062 12.4329 16.3868 12.4329H16.6932Z" fill="white"/>
<path fill-rule="evenodd" clip-rule="evenodd" d="M16.4276 11.1576C16.83 11.1576 17.2285 11.0834 17.6002 10.9392C17.972 10.795 18.3098 10.5837 18.5943 10.3173C18.8788 10.0509 19.1045 9.73457 19.2585 9.38647C19.4125 9.03838 19.4917 8.66529 19.4917 8.28851C19.4917 7.91173 19.4125 7.53864 19.2585 7.19054C19.1045 6.84245 18.8788 6.52616 18.5943 6.25974C18.3098 5.99331 17.972 5.78198 17.6002 5.63779C17.2285 5.4936 16.83 5.41939 16.4276 5.41939C15.615 5.41939 14.8356 5.72167 14.261 6.25974C13.6864 6.7978 13.3635 7.52757 13.3635 8.28851C13.3635 9.04945 13.6864 9.77922 14.261 10.3173C14.8356 10.8553 15.615 11.1576 16.4276 11.1576ZM16.4276 12.4328C17.6015 12.4328 18.7272 11.9962 19.5572 11.219C20.3873 10.4418 20.8536 9.38764 20.8536 8.28851C20.8536 7.18938 20.3873 6.13526 19.5572 5.35806C18.7272 4.58085 17.6015 4.14423 16.4276 4.14423C15.2538 4.14423 14.1281 4.58085 13.298 5.35806C12.468 6.13526 12.0017 7.18938 12.0017 8.28851C12.0017 9.38764 12.468 10.4418 13.298 11.219C14.1281 11.9962 15.2538 12.4328 16.4276 12.4328Z" fill="white"/>
</g>
</svg>
